<svg xmlns="http://www.w3.org/2000/svg" viewBox="0 0 120 120" width="120" height="120">
  <defs>
    <linearGradient id="g" x1="0" y1="0" x2="1" y2="1">
      <stop offset="0" stop-color="#7f1d1d"/>
      <stop offset="1" stop-color="#b91c1c"/>
    </linearGradient>
    <linearGradient id="gold" x1="0" y1="0" x2="0" y2="1">
      <stop offset="0" stop-color="#fbbf24"/>
      <stop offset="1" stop-color="#f59e0b"/>
    </linearGradient>
  </defs>
  <rect x="4" y="4" width="112" height="112" rx="22" fill="url(#g)"/>
  <rect x="4" y="4" width="112" height="112" rx="22" fill="none" stroke="url(#gold)" stroke-width="3"/>
  <!-- Croix dorée -->
  <rect x="55" y="28" width="10" height="64" rx="2" fill="url(#gold)"/>
  <rect x="38" y="44" width="44" height="10" rx="2" fill="url(#gold)"/>
  <!-- Onde de diffusion -->
  <path d="M22 60 Q30 50 30 60 Q30 70 22 60" fill="none" stroke="url(#gold)" stroke-width="3" stroke-linecap="round"/>
  <path d="M14 60 Q26 42 26 60 Q26 78 14 60" fill="none" stroke="url(#gold)" stroke-width="2.5" stroke-linecap="round" opacity="0.7"/>
  <path d="M98 60 Q90 50 90 60 Q90 70 98 60" fill="none" stroke="url(#gold)" stroke-width="3" stroke-linecap="round"/>
  <path d="M106 60 Q94 42 94 60 Q94 78 106 60" fill="none" stroke="url(#gold)" stroke-width="2.5" stroke-linecap="round" opacity="0.7"/>
</svg>
